<svg width="19" height="17" viewBox="0 0 19 17" fill="none" xmlns="http://www.w3.org/2000/svg">
<g id="Group 1">
<path id="Vector" d="M17.0194 0.881092L16.2835 0.145149C16.0755 -0.0628416 15.6915 -0.0308325 15.4515 0.257113L12.8913 2.80108C11.7392 2.30514 10.4754 2.06514 9.14731 2.06514C5.19519 2.08107 1.77141 4.38504 0.12329 7.69725C0.0272626 7.90524 0.0272626 8.16117 0.12329 8.33716C0.891223 9.90518 2.04329 11.2012 3.4833 12.1772L1.3873 14.3051C1.1473 14.5451 1.11529 14.9291 1.27534 15.1371L2.01128 15.8731C2.21928 16.081 2.60326 16.049 2.84326 15.7611L16.8912 1.71321C17.1952 1.47334 17.2272 1.08938 17.0192 0.881366L17.0194 0.881092ZM9.9953 5.71298C9.72329 5.64896 9.43534 5.56901 9.16332 5.56901C7.80327 5.56901 6.71538 6.65703 6.71538 8.01694C6.71538 8.28895 6.7794 8.57689 6.85935 8.84892L5.78724 9.90495C5.46728 9.34499 5.2913 8.72089 5.2913 8.01697C5.2913 5.88899 7.00332 4.17697 9.1313 4.17697C9.83536 4.17697 10.4593 4.35295 11.0193 4.67291L9.9953 5.71298Z" fill="#495057"/>
<path id="Vector_2" d="M18.1714 7.69743C17.6114 6.57738 16.8753 5.56945 15.9634 4.75342L12.9874 7.69743V8.01738C12.9874 10.1454 11.2754 11.8574 9.14739 11.8574H8.82744L6.93945 13.7454C7.64351 13.8893 8.37946 13.9854 9.09946 13.9854C13.0516 13.9854 16.4754 11.6814 18.1235 8.35325C18.2675 8.12918 18.2675 7.90527 18.1714 7.69726L18.1714 7.69743Z" fill="#495057"/>
</g>
</svg>
